<svg version="1.0" xmlns="http://www.w3.org/2000/svg" width="933.333" height="933.333" viewBox="0 0 700 700"><path d="M604.9 1.4c-11.3 3.2-13.1 4.7-51.5 43.1-29.6 29.4-37.8 38.1-39.9 42.5-1.6 3-6.8 17.4-11.6 31.8l-8.8 26.4-52 51.9-51.9 52-8.9-5.7c-11.7-7.6-32.1-17.1-40.8-19-.5-.1-3.9-.9-7.5-1.8-10.7-2.5-16.7-3.1-33-3.1-17.3 0-22.9.6-34.5 3.7-22.6 6-41.6 17.3-56.5 33.5-6 6.6-16 20.7-16 22.6 0 .6-.6 1.8-1.4 2.6-.7.9-3.4 7.1-5.9 13.9-2.6 6.7-6.6 15.3-9 19.1-7.9 12.1-20.4 22.2-33.6 27.2-6.6 2.5-6 2.3-20.3 4.4-20.7 3-35.5 7.6-50.8 15.7-12 6.4-19.8 12.4-31 23.7-15.6 15.8-24.7 30.5-31.9 51.8C2.5 454.2.7 465.3.6 484.5c-.1 18.4.6 26.8 3.3 39.8 12 56.3 46.8 106.3 97.6 140.2 24.1 16.1 53 28.1 77.5 32.1 1.9.3 3.8.8 4.1 1 1.5.9 18.3 1.9 30.4 1.9 20.5-.1 31.4-1.8 48.4-7.4 20.8-6.9 38.3-17.6 53.3-32.6 21-20.9 34.3-48.9 38.3-80.3 1.3-10.4 1.7-12.8 3.6-18.5 4.7-15.2 17-30.4 31.2-38.5 2.3-1.3 9.4-4.4 15.7-6.8 6.3-2.5 15.1-6.5 19.5-9.1 29.8-17 49.3-45.7 56-82.3 1.4-7.6 1.4-36.5 0-45-3.8-22.4-11.2-41.6-23-59.5l-5.6-8.6 52.3-52.2 52.3-52.2 25.5-8.4c14-4.6 28.2-9.7 31.5-11.4 4.9-2.5 12.6-9.7 42.1-39.2 19.9-19.8 37.3-37.8 38.7-40.1 7.9-12.8 8.5-29.1 1.7-43.1-2.5-5.1-7.2-10.3-27.5-30.7-24.2-24.2-28.8-28-37.5-31.1-6-2.1-19.3-2.7-25.1-1.1zm-307 350c25.4 6.1 43.8 24 50.1 48.6 7.9 30.8-9.4 64.5-39.2 76.4-37.5 14.9-78.9-6.8-88.3-46.1-.7-2.9-1.3-9.2-1.4-14-.6-30.3 19.9-56.7 49.9-64.4 6.4-1.6 23.1-1.9 28.9-.5z"/></svg>